<svg width="47" height="47" viewBox="0 0 47 47" fill="none" xmlns="http://www.w3.org/2000/svg">
<path d="M26.226 9.11396C24.552 8.09096 22.413 7.53296 20.088 7.53296C17.763 7.53296 15.624 8.09096 13.95 9.11396C12.276 10.137 11.067 11.625 11.067 13.392C11.067 15.159 12.276 16.647 13.95 17.67C15.624 18.693 17.763 19.251 20.088 19.251C22.413 19.251 24.552 18.693 26.226 17.67C27.9 16.647 29.109 15.159 29.109 13.392C29.109 11.625 27.9 10.137 26.226 9.11396ZM25.11 15.81C23.901 16.554 22.041 17.019 20.088 17.019C18.135 17.019 16.275 16.461 15.066 15.81C13.857 15.066 13.206 14.229 13.206 13.392C13.206 12.555 13.764 11.625 15.066 10.974C16.275 10.23 18.135 9.76496 20.088 9.76496C22.041 9.76496 23.901 10.23 25.11 10.974C26.319 11.718 26.97 12.555 26.97 13.392C26.97 14.229 26.319 15.066 25.11 15.81Z" fill="#F1D04C"/>
<path d="M45.477 19.344C44.268 19.344 43.71 19.158 42.873 18.321C42.036 17.484 41.199 15.717 40.176 12.555C40.176 12.462 40.176 12.462 40.083 12.369C39.618 8.835 37.293 5.766 33.852 3.627C30.225 1.395 25.389 0 20.088 0C14.787 0 9.951 1.395 6.324 3.627C2.883 5.859 0.465 8.928 0.0929999 12.462C-9.00775e-08 12.648 0 12.741 0 12.927C0 13.02 0 13.206 0 13.299V13.485V34.038C0 34.317 0.093 34.503 0.279 34.689C0.93 38.037 3.255 40.92 6.696 42.966C10.23 45.105 14.973 46.407 20.088 46.407C25.203 46.407 29.946 45.105 33.48 42.966C36.177 41.385 38.13 39.246 39.246 36.735C39.897 38.037 40.548 39.06 41.292 39.804C42.408 41.013 43.617 41.664 45.012 42.222L46.5 42.78V41.385V20.367V19.344H45.477ZM2.139 13.485V13.113V13.02C2.325 10.137 4.278 7.44 7.44 5.394C10.695 3.348 15.159 2.046 20.088 2.046C25.017 2.046 29.481 3.348 32.736 5.394C35.898 7.347 37.851 10.044 38.037 12.834V12.927C38.037 15.996 36.177 18.786 32.922 20.925C29.667 23.064 25.11 24.459 20.088 24.459C15.066 24.459 10.416 23.064 7.254 20.925C4.185 19.065 2.325 16.368 2.139 13.485C2.139 13.578 2.139 13.485 2.139 13.485ZM38.037 33.573V33.666C38.037 33.759 37.944 33.852 37.944 33.852C37.572 36.642 35.619 39.246 32.364 41.106C29.109 42.966 24.831 44.268 19.995 44.268C15.159 44.268 10.881 43.059 7.626 41.106C4.464 39.153 2.418 36.549 2.046 33.852C2.046 33.759 2.046 33.666 1.953 33.573V19.158C3.162 20.553 4.464 21.762 6.045 22.785C9.672 25.203 14.601 26.691 20.088 26.691C25.575 26.691 30.504 25.203 34.131 22.785C35.712 21.762 37.107 20.46 38.037 19.065V33.573Z" fill="#00A0E3"/>
</svg>
