<svg width="55" height="46" viewBox="0 0 55 46" fill="none" xmlns="http://www.w3.org/2000/svg">
<path d="M55 31.3C55 31.1 54.8 30.9 54.5 30.9H40.1V31.9H52.2L38.5 37.8H2.8L15.5 32.4V31.4L0.3 37.8C0.1 37.9 0 38.1 0 38.3C0 38.5 0.2 38.7 0.5 38.7H38.6C38.7 38.7 38.7 38.7 38.8 38.7L54.8 31.9C54.9 31.8 55 31.5 55 31.3Z" fill="#00A0E3"/>
<path d="M38.5 45.6H0.5C0.2 45.6 0 45.4 0 45.1V38.2C0 37.9 0.2 37.7 0.5 37.7H38.6C38.9 37.7 39.1 37.9 39.1 38.2V45.1C39 45.4 38.8 45.6 38.5 45.6ZM1 44.6H38.1V38.7H1V44.6Z" fill="#00A0E3"/>
<path d="M38.5 45.6C38.4 45.6 38.3 45.6 38.2 45.5C38.1 45.4 38 45.3 38 45.1V38.2C38 38 38.1 37.8 38.3 37.8L54.3 31C54.4 30.9 54.6 31 54.8 31C54.9 31.1 55 31.2 55 31.4V37.5C55 37.7 54.9 37.9 54.7 37.9L38.7 45.6C38.7 45.6 38.6 45.6 38.5 45.6ZM39 38.6V44.4L54 37.2V32.2L39 38.6Z" fill="#00A0E3"/>
<path d="M36.8 35.6H15.7C15.4 35.6 15.2 35.4 15.2 35.1V1.79999C15.2 1.49999 15.4 1.29999 15.7 1.29999H36.8C37.1 1.29999 37.3 1.49999 37.3 1.79999V35.1C37.2 35.4 37 35.6 36.8 35.6ZM16.2 34.6H36.3V2.29999H16.2V34.6Z" fill="#F1D04C"/>
<path d="M36.8 35.6C36.7 35.6 36.6 35.6 36.5 35.5C36.4 35.4 36.3 35.3 36.3 35.1V1.80001C36.3 1.60001 36.4 1.40001 36.6 1.40001L39.9 0.100015C40 1.51247e-05 40.2 0.100015 40.3 0.200015C40.4 0.300015 40.5 0.400015 40.5 0.600015V33.8C40.5 34 40.4 34.2 40.2 34.2L37 35.6C36.9 35.6 36.8 35.6 36.8 35.6ZM37.2 2.10002V34.4L39.6 33.4V1.20002L37.2 2.10002Z" fill="#F1D04C"/>
<path d="M36.8 2.3H15.6C15.4 2.3 15.2 2.1 15.1 1.9C15.1 1.7 15.2 1.4 15.4 1.4L20 0H20.1H40C40.2 0 40.4 0.2 40.5 0.4C40.5 0.6 40.4 0.8 40.2 0.9L37 2.2C36.9 2.3 36.9 2.3 36.8 2.3ZM18.9 1.3H36.7L37.6 0.9H20.2L18.9 1.3Z" fill="#F1D04C"/>
</svg>
